<svg width="2129" height="1482" xmlns="http://www.w3.org/2000/svg" xmlns:xlink="http://www.w3.org/1999/xlink" xml:space="preserve" overflow="hidden"><g transform="translate(-607 -459)"><rect x="660" y="466" width="2023" height="1468" stroke="#000000" stroke-width="13.75" stroke-miterlimit="8" stroke-dasharray="55 41.25" fill="#D9D9D9"/><g><g><g><path d="M992.062 834.35 817.943 556.827C814.827 551.741 809.28 548.654 803.316 548.687 797.326 548.684 791.754 551.758 788.562 556.827L737.688 638.481 846.814 815.018C856.049 828.983 858.035 846.527 852.156 862.204L975.528 862.204C985.631 862.709 994.23 854.928 994.733 844.825 994.918 841.144 993.987 837.494 992.062 834.35Z" transform="matrix(1 0 0 1.00082 1063 467)"/><path d="M802.553 836.003 525.92 385.887C522.37 381.302 516.835 378.7 511.039 378.892L508.75 378.892 506.461 378.892C500.665 378.7 495.129 381.302 491.58 385.887L214.947 836.003C211.028 841.487 210.489 848.695 213.548 854.7 216.633 860.141 222.75 863.124 228.938 862.204L788.562 862.204C794.75 863.124 800.867 860.141 803.952 854.7 807.011 848.695 806.472 841.487 802.553 836.003ZM555.046 596.764 511.039 635.938 467.033 596.764 394.281 640.771 508.75 455.204 620.166 635.938Z" transform="matrix(1 0 0 1.00082 1063 467)"/><path d="M381.562 407C381.562 428.073 364.479 445.156 343.406 445.156 322.333 445.156 305.25 428.073 305.25 407 305.25 385.927 322.333 368.844 343.406 368.844 364.479 368.844 381.562 385.927 381.562 407Z" transform="matrix(1 0 0 1.00082 1063 467)"/><path d="M178.062 941.188 178.062 305.25 1042.94 305.25 1042.94 941.188ZM1119.25 1017.5 1119.25 228.938 101.75 228.938 101.75 1017.5Z" transform="matrix(1 0 0 1.00082 1063 467)"/></g></g></g><text font-family="Meiryo,Meiryo_MSFontService,sans-serif" font-weight="700" font-size="83" transform="matrix(1 0 0 1 1257.59 1675)">画像をドロップするか</text><text font-family="Meiryo,Meiryo_MSFontService,sans-serif" font-weight="700" font-size="83" transform="matrix(1 0 0 1 691.587 1774)">クリックして</text><text font-family="Meiryo,Meiryo_MSFontService,sans-serif" font-weight="700" font-size="83" transform="matrix(1 0 0 1 1189.59 1774)">Upload</text><text font-family="Meiryo,Meiryo_MSFontService,sans-serif" font-weight="700" font-size="83" transform="matrix(1 0 0 1 1495.59 1774)">する画像を選択してください。</text></g></svg>